<svg xmlns="http://www.w3.org/2000/svg" width="594" height="573" viewBox="0 0 594 573">
  <g id="Group_56" data-name="Group 56" transform="translate(-3393 5465)">
    <ellipse id="Ellipse_13" data-name="Ellipse 13" cx="297" cy="286.5" rx="297" ry="286.5" transform="translate(3393 -5465)" fill="#c1a2ff"/>
    <g id="Group_54" data-name="Group 54" transform="translate(404 -479)">
      <path id="Path_111" data-name="Path 111" d="M297.254,481.455H110.736A110.023,110.023,0,0,1,.713,371.432V281.471A110.023,110.023,0,0,1,110.736,171.448H297.254A110.023,110.023,0,0,1,407.277,281.471v89.961A110.023,110.023,0,0,1,297.254,481.455Z" transform="translate(3082.287 -5026)" fill="#f9f6f9"/>
      <path id="Path_112" data-name="Path 112" d="M200.566,481.448H110.738A110.023,110.023,0,0,1,.713,371.433V281.471A110.025,110.025,0,0,1,110.738,171.446h89.828A110.025,110.025,0,0,0,90.541,281.471v89.962A110.023,110.023,0,0,0,200.566,481.448Z" transform="translate(3082.287 -5026)" fill="#dddaec"/>
      <path id="Path_113" data-name="Path 113" d="M276.815,390.893H131.175A69.065,69.065,0,0,1,62.11,321.828V284.941a69.065,69.065,0,0,1,69.065-69.065H276.816a69.065,69.065,0,0,1,69.065,69.065v36.887A69.067,69.067,0,0,1,276.815,390.893Z" transform="translate(3082.287 -5026)" fill="#9595ff"/>
      <path id="Path_114" data-name="Path 114" d="M186.723,390.9H131.176A69.066,69.066,0,0,1,62.11,321.832V284.941a69.064,69.064,0,0,1,69.066-69.056h55.547a69.064,69.064,0,0,0-69.066,69.056v36.891A69.066,69.066,0,0,0,186.723,390.9Z" transform="translate(3082.287 -5026)" fill="#7272ff"/>
      <g id="Group_50" data-name="Group 50" transform="translate(3082.287 -5026)">
        <circle id="Ellipse_11" data-name="Ellipse 11" cx="29.673" cy="29.673" r="29.673" transform="translate(108.349 267.105)" fill="#ffe07d"/>
        <circle id="Ellipse_12" data-name="Ellipse 12" cx="29.673" cy="29.673" r="29.673" transform="translate(240.295 267.105)" fill="#ffe07d"/>
      </g>
      <g id="Group_52" data-name="Group 52" transform="translate(3082.287 -5026)">
        <path id="Path_117" data-name="Path 117" d="M147.3,324.958a29.674,29.674,0,1,1,0-56.369,29.673,29.673,0,0,0,0,56.369Z" fill="#ffd064"/>
        <path id="Path_118" data-name="Path 118" d="M279.253,324.958a29.674,29.674,0,1,1,0-56.369,29.673,29.673,0,0,0,0,56.369Z" fill="#ffd064"/>
      </g>
      <path id="Path_55" data-name="Path 55" d="M121.975,126.588h0c-4.143,0-7.5-3.1-7.5-6.917V103.7c0-3.821,3.36-6.917,7.5-6.917h0c4.143,0,7.5,3.1,7.5,6.917v15.968C129.475,123.492,126.118,126.588,121.975,126.588Z" transform="translate(3128.4 -4788.416)" fill="#00ff76"/>
      <path id="Path_56" data-name="Path 56" d="M129.578,126.588h0c-4.142,0-7.5-3.1-7.5-6.917V103.7c0-3.821,3.356-6.917,7.5-6.917h0c4.142,0,7.5,3.1,7.5,6.917v15.968C137.076,123.492,133.72,126.588,129.578,126.588Z" transform="translate(3145.066 -4788.416)" fill="#00ff76"/>
      <path id="Path_57" data-name="Path 57" d="M137.186,126.588h0c-4.142,0-7.5-3.1-7.5-6.917V103.7c0-3.821,3.36-6.917,7.5-6.917h0c4.142,0,7.5,3.1,7.5,6.917v15.968C144.684,123.492,141.328,126.588,137.186,126.588Z" transform="translate(3161.73 -4788.416)" fill="#00ff76"/>
      <path id="Path_58" data-name="Path 58" d="M144.789,126.588h0c-4.143,0-7.5-3.1-7.5-6.917V103.7c0-3.821,3.357-6.917,7.5-6.917h0c4.143,0,7.5,3.1,7.5,6.917v15.968C152.293,123.492,148.932,126.588,144.789,126.588Z" transform="translate(3178.394 -4788.416)" fill="#00ff76"/>
    </g>
    <circle id="Ellipse_14" data-name="Ellipse 14" cx="60" cy="60" r="60" transform="translate(3799 -5110)" fill="#5eff37"/>
  </g>
</svg>
